<svg xmlns="http://www.w3.org/2000/svg" version="1.1" xmlns:xlink="http://www.w3.org/1999/xlink" xmlns:svgjs="http://svgjs.dev/svgjs" width="1000" height="1000" viewBox="0 0 1000 1000"><rect width="1000" height="1000" fill="#ffffff"></rect><g transform="matrix(0.7,0,0,0.7,150.00077059784894,106.25)"><svg viewBox="0 0 320 360" data-background-color="#ffffff" preserveAspectRatio="xMidYMid meet" height="1125" width="1000" xmlns="http://www.w3.org/2000/svg" xmlns:xlink="http://www.w3.org/1999/xlink"><g id="tight-bounds" transform="matrix(1,0,0,1,0.00010353528136874957,0)"><svg viewBox="0 0 320 360" height="360" width="320"><g><svg></svg></g><g><svg viewBox="0 0 320 360" height="360" width="320"><g><path xmlns="http://www.w3.org/2000/svg" d="M307.925 179.999l6.575-11.387c11.322-19.607 4.604-44.679-15.003-56.001l-11.387-6.575v-13.151c0-22.639-18.354-40.994-40.994-40.994h-13.151l-6.575-11.387c-11.322-19.607-36.393-26.325-56.001-15.003l-11.39 6.572-11.387-6.576c-19.607-11.318-44.679-4.6-56.001 15.007l-6.575 11.387h-13.151c-22.639 0-40.994 18.354-40.994 40.994v13.151l-11.387 6.575c-19.607 11.322-26.325 36.393-15.003 56.001l6.572 11.387-6.576 11.387c-11.318 19.607-4.6 44.679 15.007 56l11.387 6.576v13.15c0 22.639 18.354 40.994 40.994 40.994h13.151l6.575 11.387c11.322 19.607 36.393 26.325 56.001 15.003l11.387-6.571 11.387 6.575c19.607 11.322 44.679 4.604 56-15.003l6.576-11.387h13.15c22.639 0 40.994-18.354 40.994-40.994v-13.151l11.387-6.575c19.607-11.322 26.325-36.393 15.003-56.001zM297.702 115.716c8.655 4.996 14.842 13.062 17.428 22.713 2.586 9.65 1.261 19.734-3.735 28.384l-5.538 9.596-17.747-30.74v-35.494zM251.155 271.155l-57.791 33.365h-66.731l-57.791-33.365-33.365-57.791v-66.731l33.365-57.791 57.791-33.365h66.731l57.791 33.365 33.365 57.791v66.731zM284.517 220.539v31.351l-27.151 15.676zM247.566 277.366l-15.676 27.151h-31.351zM187.15 308.106l-27.151 15.676-27.151-15.676zM119.459 304.517h-31.352l-15.676-27.151zM62.632 267.566l-27.151-15.676v-31.351zM31.891 207.15l-15.675-27.151 15.675-27.151zM35.481 139.459v-31.352l27.151-15.676zM72.431 82.632l15.676-27.151h31.352zM132.848 51.891l27.151-15.675 27.151 15.675zM200.539 55.481h31.351l15.676 27.151zM257.366 92.431l27.151 15.676v31.352zM288.106 152.848l15.676 27.151-15.676 27.151zM247.112 55.481c9.992 0 19.384 3.889 26.452 10.956 7.063 7.063 10.956 16.46 10.957 26.452v11.079l-30.741-17.747-17.747-30.74zM173.18 28.606c8.655-4.996 18.735-6.322 28.385-3.735 9.65 2.586 17.716 8.777 22.712 17.428l5.538 9.596h-35.494l-30.741-17.747zM95.716 42.295c4.996-8.655 13.062-14.842 22.713-17.428 9.65-2.586 19.734-1.261 28.384 3.736l9.596 5.537-30.74 17.747h-35.494zM35.481 92.885c0-9.992 3.889-19.384 10.956-26.452 7.063-7.063 16.46-10.956 26.452-10.956h11.079l-17.747 30.74-30.74 17.747zM8.606 166.817c-4.996-8.655-6.322-18.735-3.735-28.385 2.586-9.65 8.777-17.716 17.428-22.712l9.596-5.538v35.495l-17.747 30.74zM22.295 244.281c-8.655-4.996-14.842-13.062-17.428-22.712-2.586-9.65-1.261-19.734 3.736-28.385l5.537-9.596 17.747 30.74v35.495zM72.885 304.517c-9.992 0-19.384-3.889-26.452-10.957-7.063-7.063-10.956-16.46-10.956-26.451v-11.08l30.74 17.747 17.747 30.741zM146.817 331.391c-8.655 4.996-18.735 6.322-28.385 3.735-9.65-2.586-17.716-8.777-22.712-17.428l-5.538-9.596h35.495l30.74 17.747zM224.281 317.702c-4.996 8.655-13.062 14.842-22.712 17.428-9.65 2.586-19.734 1.261-28.385-3.735l-9.596-5.538 30.74-17.747h35.495zM284.517 267.112c0 9.992-3.889 19.384-10.957 26.452-7.063 7.063-16.46 10.956-26.451 10.957h-11.08l17.747-30.741 30.741-17.747zM315.13 221.565c-2.586 9.65-8.777 17.716-17.428 22.712l-9.596 5.538v-35.494l17.747-30.741 5.538 9.596c4.996 8.658 6.326 18.739 3.739 28.389z" fill="#ff6353" fill-rule="nonzero" stroke="none" stroke-width="1" stroke-linecap="butt" stroke-linejoin="miter" stroke-miterlimit="10" stroke-dasharray="" stroke-dashoffset="0" font-family="none" font-weight="none" font-size="none" text-anchor="none" style="mix-blend-mode: normal" data-fill-palette-color="tertiary"></path></g><g transform="matrix(1,0,0,1,64,120.97367066366549)"><svg viewBox="0 0 192 118.05265867266903" height="118.05265867266903" width="192"><g><svg viewBox="0 0 192 118.05265867266903" height="118.05265867266903" width="192"><g><svg viewBox="0 0 192 118.05265867266903" height="118.05265867266903" width="192"><g id="textblocktransform"><svg viewBox="0 0 192 118.05265867266903" height="118.05265867266903" width="192" id="textblock"><g><svg viewBox="0 0 192 87.52941176470588" height="87.52941176470588" width="192"><g transform="matrix(1,0,0,1,0,0)"><svg width="192" viewBox="2.0999999046325684 -35.400001525878906 78.20000457763672 35.650001525878906" height="87.52941176470588" data-palette-color="#ff6353"><path d="M33.5-35.4L33.5-35.4 33.5-34.4Q31.8-34.35 30.93-33.9 30.05-33.45 29.75-32.45 29.45-31.45 29.45-29.6L29.45-29.6 29.45 0.25Q29.15 0.25 28.88 0.25 28.6 0.25 28.3 0.25L28.3 0.25 7.3-32.2 7.3-5.8Q7.3-4 7.63-2.98 7.95-1.95 8.93-1.53 9.9-1.1 11.85-1L11.85-1 11.85 0Q10.95-0.1 9.5-0.13 8.05-0.15 6.75-0.15L6.75-0.15Q5.5-0.15 4.23-0.13 2.95-0.1 2.1 0L2.1 0 2.1-1Q3.8-1.1 4.67-1.53 5.55-1.95 5.85-2.98 6.15-4 6.15-5.8L6.15-5.8 6.15-30.1Q6.15-31.95 5.85-32.83 5.55-33.7 4.67-34.02 3.8-34.35 2.1-34.4L2.1-34.4 2.1-35.4Q2.95-35.35 4.23-35.3 5.5-35.25 6.75-35.25L6.75-35.25Q7.85-35.25 8.85-35.3 9.85-35.35 10.65-35.4L10.65-35.4 28.3-8.2 28.3-29.6Q28.3-31.45 27.98-32.45 27.65-33.45 26.68-33.9 25.7-34.35 23.75-34.4L23.75-34.4 23.75-35.4Q24.65-35.35 26.13-35.3 27.6-35.25 28.85-35.25L28.85-35.25Q30.15-35.25 31.43-35.3 32.7-35.35 33.5-35.4ZM50.15-35.4L50.15-35.4 50.15-34.4Q48.45-34.35 47.57-34.02 46.7-33.7 46.4-32.83 46.1-31.95 46.1-30.1L46.1-30.1 46.1-5.3Q46.1-3.5 46.4-2.6 46.7-1.7 47.57-1.4 48.45-1.1 50.15-1L50.15-1 50.15 0Q49-0.1 47.27-0.13 45.55-0.15 43.8-0.15L43.8-0.15Q41.85-0.15 40.15-0.13 38.45-0.1 37.4 0L37.4 0 37.4-1Q39.1-1.1 39.97-1.4 40.85-1.7 41.15-2.6 41.45-3.5 41.45-5.3L41.45-5.3 41.45-30.1Q41.45-31.95 41.15-32.83 40.85-33.7 39.97-34.02 39.1-34.35 37.4-34.4L37.4-34.4 37.4-35.4Q38.45-35.35 40.15-35.3 41.85-35.25 43.8-35.25L43.8-35.25Q45.55-35.25 47.27-35.3 49-35.35 50.15-35.4ZM79.3-35.4L79.3-35.4Q79.09-33.65 79.02-32 78.95-30.35 78.95-29.5L78.95-29.5Q78.95-28.6 79-27.78 79.05-26.95 79.09-26.4L79.09-26.4 77.95-26.4Q77.65-29.35 77.09-31.08 76.55-32.8 75.22-33.52 73.9-34.25 71.25-34.25L71.25-34.25 67.09-34.25Q65.4-34.25 64.52-33.98 63.65-33.7 63.35-32.83 63.05-31.95 63.05-30.1L63.05-30.1 63.05-5.3Q63.05-3.5 63.35-2.6 63.65-1.7 64.52-1.43 65.4-1.15 67.09-1.15L67.09-1.15 70.75-1.15Q73.9-1.15 75.52-2 77.15-2.85 77.87-4.78 78.59-6.7 78.95-10L78.95-10 80.09-10Q79.95-8.65 79.95-6.4L79.95-6.4Q79.95-5.45 80.02-3.68 80.09-1.9 80.3 0L80.3 0Q77.75-0.1 74.55-0.13 71.34-0.15 68.84-0.15L68.84-0.15Q67.34-0.15 64.87-0.15 62.4-0.15 59.6-0.13 56.8-0.1 54.35 0L54.35 0 54.35-1Q56.05-1.1 56.92-1.4 57.8-1.7 58.1-2.6 58.4-3.5 58.4-5.3L58.4-5.3 58.4-30.1Q58.4-31.95 58.1-32.83 57.8-33.7 56.92-34.02 56.05-34.35 54.35-34.4L54.35-34.4 54.35-35.4Q56.8-35.35 59.6-35.3 62.4-35.25 64.87-35.25 67.34-35.25 68.84-35.25L68.84-35.25Q71.15-35.25 74.07-35.27 77-35.3 79.3-35.4ZM61.55-18.3L70.7-18.3Q70.7-18.3 70.7-17.8 70.7-17.3 70.7-17.3L70.7-17.3 61.55-17.3Q61.55-17.3 61.55-17.8 61.55-18.3 61.55-18.3L61.55-18.3ZM71-24.9L72.15-24.9Q71.95-22.05 71.97-20.55 72-19.05 72-17.8L72-17.8Q72-16.55 72.05-15.05 72.09-13.55 72.3-10.7L72.3-10.7 71.15-10.7Q70.95-12.3 70.67-13.83 70.4-15.35 69.47-16.32 68.55-17.3 66.34-17.3L66.34-17.3 66.34-18.3Q68.55-18.3 69.42-19.45 70.3-20.6 70.55-22.15 70.8-23.7 71-24.9L71-24.9Z" opacity="1" transform="matrix(1,0,0,1,0,0)" fill="#ff6353" class="wordmark-text-0" data-fill-palette-color="primary" id="text-0"></path></svg></g></svg></g><g transform="matrix(1,0,0,1,0,108.19300517647059)"><svg viewBox="0 0 192 9.85965349619843" height="9.85965349619843" width="192"><g transform="matrix(1,0,0,1,0,0)"><svg width="192" viewBox="3.25 -38.9900016784668 783.4199829101562 40.2400016784668" height="9.85965349619843" data-palette-color="#ff4136"><path d="M33.96-34.11L33.96 0 32.96 0Q31.3-2.25 23.44-12.17 15.58-22.09 12.21-26.54L12.21-26.54Q10.74-28.44 9.4-31.01L9.4-31.01 9.25-30.91 9.25-3.15Q9.25-2.22 9.85-1.71 10.45-1.2 11.17-1.01 11.89-0.83 13.16-0.61 14.43-0.39 14.65-0.34L14.65-0.34 14.65 0.15Q10.03-0.15 7.25 0.15L7.25 0.15Q7.1-0.51 7.1-1.15L7.1-1.15 7.1-29.25Q7.03-30.98 6.49-32.35L6.49-32.35Q5.79-34.25 3.25-34.06L3.25-34.06 3.25-34.55Q6.67-35.4 9.96-35.4L9.96-35.4 28.34-11.89Q29.64-10.25 30.41-8.95 31.18-7.64 31.91-5.69L31.91-5.69 31.91-31.1Q31.91-32.81 30.63-33.53 29.35-34.25 26.61-34.06L26.61-34.06 26.49-34.55Q29.66-35.33 33.54-35.4L33.54-35.4Q33.96-34.77 33.96-34.11L33.96-34.11ZM41.94-11.89L41.94-11.89Q41.94-14.48 42.8-16.91 43.65-19.34 45.24-21.23 46.82-23.12 49.08-24.26 51.34-25.39 54.15-25.39L54.15-25.39Q55.91-25.39 57.47-24.79 59.03-24.19 60.19-22.94 61.35-21.68 62.02-19.71 62.69-17.75 62.69-15.04L62.69-15.04 61.74-14.16 45.8-14.16Q45.75-13.75 45.75-13.35 45.75-12.96 45.75-12.57L45.75-12.57Q45.75-9.91 46.37-7.74 46.99-5.57 48.06-4.02 49.12-2.47 50.56-1.61 52-0.76 53.61-0.76L53.61-0.76Q54.64-0.76 55.7-0.92 56.76-1.07 57.77-1.42 58.79-1.76 59.74-2.29 60.69-2.83 61.5-3.59L61.5-3.59 62.5-2.54Q60.57-0.63 58.3 0.18 56.03 1 53.05 1L53.05 1Q50.71 1 48.67 0.1 46.63-0.81 45.14-2.49 43.65-4.17 42.8-6.56 41.94-8.94 41.94-11.89ZM53.61-23.71L53.61-23.71Q49.83-23.71 48.07-21.74 46.31-19.78 45.94-16.09L45.94-16.09 59.54-16.09Q59.35-20.09 57.75-21.9 56.15-23.71 53.61-23.71ZM74.6-22.61L74.6-6.74Q74.6-3.42 75.34-2.16 76.07-0.9 77.7-0.9L77.7-0.9Q79.49-0.9 82.05-2.25L82.05-2.25 82.81-1.2Q78.78 1 76.22 1L76.22 1Q74.85 1 73.99 0.76 73.14 0.51 72.43-0.2 71.72-0.9 71.42-2.28 71.11-3.66 71.11-5.86L71.11-5.86 71.11-22.41 67.45-22.19 67.45-23.75Q69.38-24.17 71.11-24.29L71.11-24.29 71.11-27.76Q73.19-28.93 74.51-31.1L74.51-31.1 75.26-30.81Q74.85-29.83 74.73-28.6 74.6-27.37 74.6-24.44L74.6-24.44 83-24.44 83-23.58Q81.98-23.17 80.93-22.89 79.88-22.61 78.75-22.61L78.75-22.61 74.6-22.61ZM125.7-24.61L114.79 1.25 113.1 0.76 107.19-18.65 99.5 1.25 97.8 0.76 90.54-19.8Q90.15-21.07 89.62-21.8 89.08-22.53 88.48-22.75 87.88-22.97 87.16-23.01 86.44-23.05 85.25-22.85L85.25-22.85 85-23.34Q89.1-25.39 92.25-25.39L92.25-25.39 98.41-8.3Q98.92-6.57 99.5-3.81L99.5-3.81 99.89-3.81Q100.8-6.79 101.19-7.74L101.19-7.74 106.34-21.04Q106.05-21.85 105.53-22.27 105.02-22.68 104.63-22.88L104.63-22.88Q104.41-23 103.98-23.03 103.56-23.07 103.11-23.06 102.65-23.05 102.23-22.99 101.8-22.92 101.56-22.85L101.56-22.85 101.29-23.34Q105.39-25.39 108.49-25.39L108.49-25.39 113.84-8.4Q114.42-6.52 114.93-3.91L114.93-3.91 115.35-3.91Q116.11-6.4 116.64-7.86L116.64-7.86 122.4-22.29Q122.65-22.88 122.28-23.24 121.92-23.61 120.99-23.74 120.06-23.88 118.69-23.75L118.69-23.75 118.55-24.34Q121.67-25.02 125.41-25.1L125.41-25.1 125.7-24.61ZM141.15-25.39L141.15-25.39Q146.77-25.39 149.97-21.95 153.16-18.51 153.16-12.35L153.16-12.35Q153.16-8.79 151.53-5.71 149.89-2.64 147.08-0.82 144.28 1 141.01 1L141.01 1Q135.37 1 132.18-2.4 128.99-5.81 128.99-12.06L128.99-12.06Q128.99-15.77 130.63-18.84 132.27-21.9 135.06-23.65 137.86-25.39 141.15-25.39ZM140.66-23.71L140.66-23.71Q138.74-23.71 137.32-23.14 135.9-22.58 135.05-21.63 134.19-20.68 133.68-19.21 133.17-17.75 132.99-16.21 132.8-14.67 132.8-12.65L132.8-12.65Q132.8-9.42 133.57-7.02 134.34-4.61 135.63-3.28 136.93-1.95 138.39-1.33 139.86-0.71 141.49-0.71L141.49-0.71Q143.4-0.71 144.83-1.31 146.25-1.9 147.11-2.87 147.96-3.83 148.48-5.31 148.99-6.79 149.17-8.3 149.36-9.81 149.36-11.74L149.36-11.74Q149.36-14.45 148.84-16.58 148.33-18.7 147.49-20.02 146.65-21.34 145.49-22.19 144.33-23.05 143.15-23.38 141.98-23.71 140.66-23.71ZM161.29-2.44L161.29-18.09Q161.29-19.73 161.13-20.83 160.97-21.92 160.57-22.58 160.17-23.24 159.46-23.51 158.75-23.78 156.99-23.75L156.99-23.75 156.9-24.19Q160.88-25.39 164.29-25.39L164.29-25.39Q164.81-24.1 164.81-22.61L164.81-22.61 164.81-19.6 164.9-19.51Q165.93-20.92 166.87-22.02 167.81-23.12 168.79-23.85 169.76-24.58 170.84-24.96 171.91-25.34 173.23-25.34L173.23-25.34Q174.06-25.34 175.06-25.2L175.06-25.2 173.64-19.24 172.74-19.51Q172.74-19.87 172.69-20.51 172.64-21.14 172.56-21.77 172.47-22.39 172.34-22.84 172.2-23.29 172.03-23.29L172.03-23.29Q171.33-23.29 170.61-22.99 169.88-22.68 169.03-22 168.18-21.31 167.15-20.21 166.13-19.12 164.81-17.55L164.81-17.55 164.81-3.34Q164.81-2.56 164.93-2.09 165.05-1.61 165.44-1.29 165.83-0.98 166.54-0.73 167.25-0.49 168.4-0.2L168.4-0.2 168.2 0.39Q166.78 0.2 165.8 0.1 164.81 0 164.2 0L164.2 0Q162.8 0 160.95 0.39L160.95 0.39 160.8 0.15Q161.29-0.56 161.29-2.44L161.29-2.44ZM181.7-2.44L181.7-31.69Q181.7-35.16 180.88-36.34 180.06-37.52 177.4-37.35L177.4-37.35 177.3-37.79Q181.33-38.99 184.7-38.99L184.7-38.99Q185.21-37.72 185.21-36.21L185.21-36.21 185.21-4.39Q185.21-2.47 186.12-1.54 187.02-0.61 189.32-0.2L189.32-0.2 189.12 0.39Q186.31 0 184.6 0L184.6 0Q183.26 0 181.36 0.39L181.36 0.39 181.21 0.15Q181.7-0.56 181.7-2.44L181.7-2.44ZM196.2-1.15L196.2-1.15 187.17-13.04 187.17-13.6 196.2-22.71Q196.88-23.46 195.69-23.85L195.69-23.85Q194.61-24.22 192.61-24.05L192.61-24.05 192.47-24.66Q195.59-25.29 199.72-25.39L199.72-25.39 200.11-24.66 189.95-14.5Q199.42-2.61 200.52-1.82 201.62-1.03 203.26-0.66L203.26-0.66 203.21 0.1Q199.2-0.2 197.15 0.39L197.15 0.39 196.81 0.2Q196.86-0.34 196.2-1.15ZM231.4-25.39L231.4-25.39Q237.02-25.39 240.21-21.95 243.41-18.51 243.41-12.35L243.41-12.35Q243.41-8.79 241.78-5.71 240.14-2.64 237.33-0.82 234.53 1 231.25 1L231.25 1Q225.61 1 222.43-2.4 219.24-5.81 219.24-12.06L219.24-12.06Q219.24-15.77 220.88-18.84 222.51-21.9 225.31-23.65 228.11-25.39 231.4-25.39ZM230.91-23.71L230.91-23.71Q228.98-23.71 227.57-23.14 226.15-22.58 225.3-21.63 224.44-20.68 223.93-19.21 223.42-17.75 223.23-16.21 223.05-14.67 223.05-12.65L223.05-12.65Q223.05-9.42 223.82-7.02 224.59-4.61 225.88-3.28 227.18-1.95 228.64-1.33 230.11-0.71 231.74-0.71L231.74-0.71Q233.65-0.71 235.08-1.31 236.5-1.9 237.36-2.87 238.21-3.83 238.73-5.31 239.24-6.79 239.42-8.3 239.6-9.81 239.6-11.74L239.6-11.74Q239.6-14.45 239.09-16.58 238.58-18.7 237.74-20.02 236.89-21.34 235.73-22.19 234.57-23.05 233.4-23.38 232.23-23.71 230.91-23.71ZM257.55-35.55L257.55-35.55Q256.25-34.69 255.69-31.93 255.13-29.17 255.01-24.44L255.01-24.44 263.11-24.44 263.11-23.61Q262.67-23.41 262.06-23.23 261.45-23.05 260.77-22.91 260.08-22.78 259.39-22.69 258.69-22.61 258.11-22.61L258.11-22.61 255.01-22.61 255.01-4.39Q255.01-3.42 255.21-2.71 255.42-2 255.91-1.51 256.4-1.03 257.18-0.71 257.96-0.39 259.11-0.2L259.11-0.2 258.89 0.39Q257.5 0.2 256.37 0.1 255.25 0 254.4 0L254.4 0Q253 0 251.15 0.39L251.15 0.39 251 0.15Q251.49-0.56 251.49-2.44L251.49-2.44 251.49-22.46 247.34-22.19 247.34-23.56Q249.83-24.34 251.49-24.34L251.49-24.34 251.49-25.15Q251.49-27.27 251.69-29.06 251.88-30.86 252.44-32.34 253-33.81 253.99-34.95 254.98-36.08 256.59-36.89L256.59-36.89Q257.86-37.52 259.22-37.79 260.57-38.06 262.21-38.06L262.21-38.06Q262.84-38.06 263.52-38.02 264.19-37.99 264.94-37.94L264.94-37.94Q264.97-37.67 264.97-37.41 264.97-37.16 264.97-36.66 264.97-36.16 264.91-35.4 264.85-34.64 264.75-33.94 264.65-33.23 264.52-32.59 264.38-31.96 264.21-31.49L264.21-31.49 263.41-31.64Q263.41-32.1 263.32-32.8 263.23-33.5 263.11-34.18 262.99-34.86 262.84-35.41 262.7-35.96 262.55-36.16L262.55-36.16Q261.48-36.43 260.6-36.43L260.6-36.43Q258.89-36.43 257.55-35.55ZM288.38-32.59L288.38-32.59 288.38-4.39Q288.38-2.42 289.18-1.51 289.99-0.61 292.23-0.2L292.23-0.2 292.04 0.39Q289.33 0.02 287.91 0 286.5-0.02 284.3 0.39L284.3 0.39 284.13 0.15Q284.64-0.56 284.64-2.44L284.64-2.44 284.64-28.1Q284.64-31.54 283.81-32.74 282.98-33.94 280.34-33.74L280.34-33.74 280.25-34.2Q284.27-35.4 287.89-35.4L287.89-35.4Q288.38-34.06 288.38-32.59ZM300.63-2.44L300.63-18.09Q300.63-19.73 300.47-20.83 300.31-21.92 299.91-22.58 299.51-23.24 298.8-23.51 298.09-23.78 297.3-23.78 296.5-23.78 296.33-23.75L296.33-23.75 296.23-24.19Q300.21-25.39 303.63-25.39L303.63-25.39Q304.14-24.1 304.14-22.61L304.14-22.61 304.14-21.9Q305.56-22.85 306.76-23.56 307.95-24.27 309.11-24.76 310.27-25.24 311.49-25.49 312.71-25.73 314.18-25.73L314.18-25.73Q315.5-25.73 316.8-25.39 318.11-25.05 319.15-24.17 320.18-23.29 320.83-21.78 321.48-20.26 321.48-17.94L321.48-17.94 321.48-2.76Q321.48-2.17 321.76-1.78 322.04-1.39 322.49-1.12 322.94-0.85 323.53-0.67 324.12-0.49 324.75-0.29L324.75-0.29 324.53 0.29Q323.16 0 320.89 0L320.89 0Q319.5 0 317.65 0.39L317.65 0.39 317.5 0.15Q317.99-0.56 317.99-2.44L317.99-2.44 317.99-17.04Q317.99-19.09 317.6-20.4 317.21-21.7 316.53-22.45 315.86-23.19 314.97-23.49 314.08-23.78 313.08-23.78L313.08-23.78Q311.86-23.78 310.8-23.56 309.74-23.34 308.67-22.89 307.61-22.44 306.51-21.77 305.41-21.09 304.14-20.19L304.14-20.19 304.14-3.34Q304.14-2.56 304.27-2.09 304.39-1.61 304.78-1.29 305.17-0.98 305.88-0.73 306.59-0.49 307.73-0.2L307.73-0.2 307.54 0.39Q306.12 0.2 305.13 0.1 304.14 0 303.53 0L303.53 0Q302.14 0 300.29 0.39L300.29 0.39 300.14 0.15Q300.63-0.56 300.63-2.44L300.63-2.44ZM347.65-25L347.65-31.69Q347.65-33.35 347.5-34.33 347.36-35.3 346.9-36.04 346.45-36.77 345.6-37.06 344.74-37.35 343.35-37.35L343.35-37.35 343.25-37.79Q347.28-38.99 350.65-38.99L350.65-38.99Q351.14-37.7 351.14-36.21L351.14-36.21 351.14-4.39Q351.14-2.47 352.04-1.54 352.95-0.61 355.24-0.2L355.24-0.2 355.05 0.39Q352.24 0 350.55 0L350.55 0Q349.24 0 347.28 0.39L347.28 0.39 347.14 0.15Q347.65-0.56 347.65-2.44L347.65-2.44 347.65-2.66Q344.06 1 340.15 1L340.15 1Q338.08 1 336.16 0.12 334.24-0.76 332.76-2.31 331.27-3.86 330.38-6.19 329.48-8.52 329.48-11.25L329.48-11.25Q329.48-17.8 332.94-21.59 336.39-25.39 342.94-25.39L342.94-25.39Q344.99-25.39 347.65-25L347.65-25ZM347.65-4.44L347.65-22.29Q344.86-23.56 341.15-23.56L341.15-23.56Q339.25-23.56 337.86-23.03 336.47-22.51 335.6-21.61 334.73-20.7 334.22-19.27 333.71-17.85 333.52-16.26 333.34-14.67 333.34-12.55L333.34-12.55Q333.34-6.96 335.42-4.03 337.49-1.1 340.79-1.1L340.79-1.1Q344.38-1.1 347.65-4.44L347.65-4.44ZM381.83-22.19L381.83-6.81Q381.83-5.18 381.98-4.09 382.14-3 382.55-2.34 382.95-1.68 383.66-1.4 384.36-1.12 385.15-1.12 385.93-1.12 386.12-1.15L386.12-1.15 386.24-0.71Q382.22 0.49 378.82 0.49L378.82 0.49Q378.33-0.83 378.33-2.29L378.33-2.29 378.33-3.44Q377.04-2.29 375.93-1.46 374.82-0.63 373.74-0.09 372.67 0.46 371.55 0.73 370.42 1 369.13 1L369.13 1Q367.67 1 366.21 0.66 364.76 0.32 363.59-0.56 362.42-1.44 361.7-2.95 360.98-4.47 360.98-6.81L360.98-6.81 360.98-21.9Q360.98-22.88 360.16-23.39 359.34-23.9 357.73-24.34L357.73-24.34 357.92-24.95Q359.34-24.66 361.59-24.66L361.59-24.66Q362.98-24.66 364.83-25.05L364.83-25.05 364.98-24.8Q364.49-24.05 364.49-22.19L364.49-22.19 364.49-7.69Q364.49-5.66 364.96-4.36 365.42-3.05 366.2-2.29 366.98-1.54 368.03-1.26 369.08-0.98 370.25-0.98L370.25-0.98Q371.35-0.98 372.29-1.21 373.23-1.44 374.18-1.94 375.14-2.44 376.14-3.23 377.14-4.03 378.33-5.15L378.33-5.15 378.33-21.29Q378.33-22.05 378.2-22.52 378.07-23 377.69-23.33 377.31-23.66 376.6-23.9 375.89-24.15 374.75-24.44L374.75-24.44 374.94-25.05Q376.33-24.85 377.33-24.76 378.33-24.66 378.94-24.66L378.94-24.66Q380.34-24.66 382.19-25.05L382.19-25.05 382.34-24.8Q381.83-24.07 381.83-22.19L381.83-22.19ZM407.8-5.69L407.8-5.69Q407.8-3.93 407.09-2.66 406.38-1.39 405.2-0.57 404.02 0.24 402.44 0.62 400.87 1 399.13 1L399.13 1Q394.93 1 391.25-0.76L391.25-0.76Q391.71-2.37 392.17-3.75 392.64-5.13 393.13-6.3L393.13-6.3 393.83-6.05Q393.61-4.98 393.61-3.99 393.61-3 393.69-2.2L393.69-2.2Q394.44-1.81 395.1-1.53 395.76-1.25 396.42-1.06 397.08-0.88 397.84-0.79 398.6-0.71 399.6-0.71L399.6-0.71Q401.09-0.71 402.06-0.9 403.04-1.1 403.59-1.57 404.14-2.05 404.36-2.84 404.58-3.64 404.58-4.81L404.58-4.81Q404.58-5.71 404.27-6.51 403.97-7.3 403.22-8.08 402.48-8.86 401.24-9.7 400.01-10.55 398.18-11.55L398.18-11.55Q395.23-13.31 393.71-15.05 392.2-16.8 392.2-18.8L392.2-18.8Q392.2-20.39 392.86-21.62 393.52-22.85 394.65-23.69 395.79-24.54 397.3-24.96 398.82-25.39 400.5-25.39L400.5-25.39Q401.35-25.39 402.29-25.27 403.23-25.15 404.11-24.91 404.99-24.68 405.76-24.35 406.53-24.02 407.09-23.61L407.09-23.61Q406.31-20.41 405.19-17.99L405.19-17.99 404.48-18.26Q404.53-18.97 404.55-20.01 404.58-21.04 404.58-22.46L404.58-22.46Q402.99-23.71 400.18-23.71L400.18-23.71Q398.79-23.71 397.83-23.54 396.86-23.36 396.28-22.95 395.69-22.53 395.43-21.81 395.18-21.09 395.18-20L395.18-20Q395.18-19.19 395.4-18.49 395.62-17.8 396.18-17.13 396.74-16.46 397.7-15.76 398.67-15.06 400.18-14.26L400.18-14.26Q402.55-12.96 404.03-11.99 405.5-11.01 406.35-10.07 407.19-9.13 407.49-8.11 407.8-7.08 407.8-5.69ZM419.93-22.61L419.93-6.74Q419.93-3.42 420.66-2.16 421.4-0.9 423.03-0.9L423.03-0.9Q424.81-0.9 427.38-2.25L427.38-2.25 428.13-1.2Q424.11 1 421.54 1L421.54 1Q420.17 1 419.32 0.76 418.47 0.51 417.76-0.2 417.05-0.9 416.74-2.28 416.44-3.66 416.44-5.86L416.44-5.86 416.44-22.41 412.78-22.19 412.78-23.75Q414.71-24.17 416.44-24.29L416.44-24.29 416.44-27.76Q418.51-28.93 419.83-31.1L419.83-31.1 420.59-30.81Q420.17-29.83 420.05-28.6 419.93-27.37 419.93-24.44L419.93-24.44 428.33-24.44 428.33-23.58Q427.3-23.17 426.25-22.89 425.2-22.61 424.08-22.61L424.08-22.61 419.93-22.61ZM435.21-2.44L435.21-18.09Q435.21-19.73 435.05-20.83 434.89-21.92 434.49-22.58 434.09-23.24 433.38-23.51 432.67-23.78 430.91-23.75L430.91-23.75 430.82-24.19Q434.8-25.39 438.21-25.39L438.21-25.39Q438.73-24.1 438.73-22.61L438.73-22.61 438.73-19.6 438.82-19.51Q439.85-20.92 440.79-22.02 441.73-23.12 442.71-23.85 443.68-24.58 444.76-24.96 445.83-25.34 447.15-25.34L447.15-25.34Q447.98-25.34 448.98-25.2L448.98-25.2 447.56-19.24 446.66-19.51Q446.66-19.87 446.61-20.51 446.56-21.14 446.48-21.77 446.39-22.39 446.26-22.84 446.12-23.29 445.95-23.29L445.95-23.29Q445.25-23.29 444.53-22.99 443.81-22.68 442.95-22 442.1-21.31 441.07-20.21 440.05-19.12 438.73-17.55L438.73-17.55 438.73-3.34Q438.73-2.56 438.85-2.09 438.97-1.61 439.36-1.29 439.75-0.98 440.46-0.73 441.17-0.49 442.32-0.2L442.32-0.2 442.12 0.39Q440.7 0.2 439.72 0.1 438.73 0 438.12 0L438.12 0Q436.73 0 434.87 0.39L434.87 0.39 434.72 0.15Q435.21-0.56 435.21-2.44L435.21-2.44ZM455.62-2.44L455.62-18.09Q455.62-21.56 454.8-22.74 453.98-23.93 451.32-23.75L451.32-23.75 451.22-24.19Q455.25-25.39 458.62-25.39L458.62-25.39Q459.13-24.12 459.13-22.61L459.13-22.61 459.13-4.39Q459.13-2.47 460.04-1.54 460.94-0.61 463.24-0.2L463.24-0.2 463.04 0.39Q460.23 0 458.71 0 457.18 0 455.28 0.39L455.28 0.39 455.13 0.15Q455.62-0.56 455.62-2.44L455.62-2.44ZM453.13-34.45L453.13-34.45Q455.45-35.79 458.38-36.69L458.38-36.69Q458.38-34.67 459.04-32.69L459.04-32.69 458.72-32.25Q456.4-32.1 453.89-30.96L453.89-30.96Q453.28-32.64 453.13-34.45ZM485.47-17.65L485.47-2.76Q485.47-2.34 485.66-1.99 485.84-1.64 486.1-1.4 486.35-1.17 486.84-0.95 487.33-0.73 487.7-0.61 488.06-0.49 488.72-0.29L488.72-0.29 488.53 0.29Q486.96 0 485.43 0L485.43 0Q483.5 0 481.62 0.39L481.62 0.39 481.47 0.15Q481.98-0.56 481.98-2.44L481.98-2.44 481.98-4.05Q480.76-1.78 478.19-0.39 475.61 1 472.97 1L472.97 1Q470.17 1 468.45-0.45 466.72-1.9 466.72-4.76L466.72-4.76Q466.72-6.62 467.49-8.07 468.26-9.52 469.54-10.53 470.83-11.55 472.84-12.33 474.85-13.11 476.99-13.6 479.13-14.09 481.98-14.5L481.98-14.5 481.98-16.75Q481.98-23.46 476.69-23.46L476.69-23.46Q474.98-23.46 472.5-22.62 470.02-21.78 468.34-20.41L468.34-20.41 467.34-21.56Q469.46-23.24 472.38-24.34 475.29-25.44 477.83-25.44L477.83-25.44Q478.96-25.44 479.97-25.23 480.98-25.02 482.02-24.48 483.06-23.93 483.8-23.08 484.55-22.24 485.01-20.84 485.47-19.43 485.47-17.65L485.47-17.65ZM474.12-0.85L474.12-0.85Q476.25-0.85 478.57-2.26 480.89-3.66 481.98-5.76L481.98-5.76 481.98-13.21Q475.73-12.3 473.06-10.44 470.39-8.57 470.39-5L470.39-5Q470.39-2.83 471.31-1.84 472.24-0.85 474.12-0.85ZM500.12-36.21L500.12-4.39Q500.12-2.47 501.02-1.54 501.93-0.61 504.22-0.2L504.22-0.2 504.03 0.39Q501.22 0 499.69 0 498.17 0 496.26 0.39L496.26 0.39 496.12 0.15Q496.61-0.56 496.61-2.44L496.61-2.44 496.61-31.69Q496.61-35.16 495.79-36.34 494.97-37.52 492.31-37.35L492.31-37.35 492.21-37.79Q496.24-38.99 499.61-38.99L499.61-38.99Q500.12-37.72 500.12-36.21L500.12-36.21ZM530.34-18.19L530.34-1.49 538.93-1.76Q540.72-1.81 541.94-2.17 543.16-2.54 544.04-3.21 544.92-3.88 545.57-4.87 546.23-5.86 546.89-7.15L546.89-7.15 547.6-6.86 545.18-0.34 544.79 0 527.04 0Q526.58-1 526.58-2.39L526.58-2.39 526.58-28.34Q526.58-29.96 526.43-30.99 526.29-32.03 525.9-32.65 525.51-33.28 524.81-33.52 524.11-33.76 523.02-33.76L523.02-33.76Q522.85-33.76 522.66-33.76 522.48-33.76 522.28-33.74L522.28-33.74 522.19-34.45Q529.14-35.55 537.52-35.55L537.52-35.55Q541.79-35.55 546.48-35.25L546.48-35.25 546.65-34.84 544.33-28.76 543.55-29Q543.74-29.93 543.84-30.71 543.94-31.49 543.94-32.24 543.94-32.98 543.74-33.64L543.74-33.64Q541.91-33.81 540.14-33.9 538.37-33.98 536.61-33.98L536.61-33.98Q533.42-33.98 530.34-33.69L530.34-33.69 530.34-19.9 543.69-20.63 543.94-20.36 542.79-18.36Q541.69-18.41 540.57-18.43 539.45-18.46 538.28-18.46L538.28-18.46Q536.37-18.46 534.39-18.38 532.42-18.31 530.34-18.19L530.34-18.19ZM564.37 1L564.37 1Q561.81 1 559.61-0.02 557.41-1.05 555.95-2.77 554.48-4.49 553.65-6.7 552.82-8.91 552.82-11.3L552.82-11.3Q552.82-14.72 553.82-17.43 554.83-20.14 556.61-21.86 558.39-23.58 560.77-24.49 563.15-25.39 565.98-25.39L565.98-25.39Q569.11-25.39 572.43-24.24L572.43-24.24 570.84-18.26 569.94-18.51Q570.21-21.07 569.79-22.9L569.79-22.9Q567.06-23.71 564.84-23.71L564.84-23.71Q560.54-23.71 558.59-20.91 556.63-18.12 556.63-12.65L556.63-12.65Q556.63-7.54 559.01-4.15 561.39-0.76 565.03-0.76L565.03-0.76Q569.55-0.76 572.38-3.59L572.38-3.59 573.38-2.54Q571.55-0.63 569.39 0.18 567.23 1 564.37 1ZM589.12-25.39L589.12-25.39Q594.74-25.39 597.94-21.95 601.14-18.51 601.14-12.35L601.14-12.35Q601.14-8.79 599.5-5.71 597.86-2.64 595.06-0.82 592.25 1 588.98 1L588.98 1Q583.34 1 580.15-2.4 576.97-5.81 576.97-12.06L576.97-12.06Q576.97-15.77 578.6-18.84 580.24-21.9 583.03-23.65 585.83-25.39 589.12-25.39ZM588.64-23.71L588.64-23.71Q586.71-23.71 585.29-23.14 583.88-22.58 583.02-21.63 582.17-20.68 581.65-19.21 581.14-17.75 580.96-16.21 580.77-14.67 580.77-12.65L580.77-12.65Q580.77-9.42 581.54-7.02 582.31-4.61 583.61-3.28 584.9-1.95 586.37-1.33 587.83-0.71 589.47-0.71L589.47-0.71Q591.37-0.71 592.8-1.31 594.23-1.9 595.08-2.87 595.94-3.83 596.45-5.31 596.96-6.79 597.14-8.3 597.33-9.81 597.33-11.74L597.33-11.74Q597.33-14.45 596.81-16.58 596.3-18.7 595.46-20.02 594.62-21.34 593.46-22.19 592.3-23.05 591.13-23.38 589.95-23.71 588.64-23.71ZM609.26-2.44L609.26-18.09Q609.26-19.73 609.1-20.83 608.95-21.92 608.54-22.58 608.14-23.24 607.43-23.51 606.72-23.78 605.93-23.78 605.14-23.78 604.97-23.75L604.97-23.75 604.87-24.19Q608.85-25.39 612.27-25.39L612.27-25.39Q612.78-24.1 612.78-22.61L612.78-22.61 612.78-21.9Q614.2-22.85 615.39-23.56 616.59-24.27 617.75-24.76 618.91-25.24 620.13-25.49 621.35-25.73 622.81-25.73L622.81-25.73Q624.13-25.73 625.44-25.39 626.74-25.05 627.78-24.17 628.82-23.29 629.47-21.78 630.11-20.26 630.11-17.94L630.11-17.94 630.11-2.76Q630.11-2.17 630.39-1.78 630.67-1.39 631.13-1.12 631.58-0.85 632.16-0.67 632.75-0.49 633.38-0.29L633.38-0.29 633.17 0.29Q631.8 0 629.53 0L629.53 0Q628.14 0 626.28 0.39L626.28 0.39 626.13 0.15Q626.62-0.56 626.62-2.44L626.62-2.44 626.62-17.04Q626.62-19.09 626.23-20.4 625.84-21.7 625.17-22.45 624.5-23.19 623.61-23.49 622.72-23.78 621.71-23.78L621.71-23.78Q620.49-23.78 619.43-23.56 618.37-23.34 617.31-22.89 616.25-22.44 615.15-21.77 614.05-21.09 612.78-20.19L612.78-20.19 612.78-3.34Q612.78-2.56 612.9-2.09 613.02-1.61 613.41-1.29 613.8-0.98 614.51-0.73 615.22-0.49 616.37-0.2L616.37-0.2 616.17 0.39Q614.76 0.2 613.77 0.1 612.78 0 612.17 0L612.17 0Q610.78 0 608.92 0.39L608.92 0.39 608.78 0.15Q609.26-0.56 609.26-2.44L609.26-2.44ZM650.28-25.39L650.28-25.39Q655.89-25.39 659.09-21.95 662.29-18.51 662.29-12.35L662.29-12.35Q662.29-8.79 660.65-5.71 659.02-2.64 656.21-0.82 653.4 1 650.13 1L650.13 1Q644.49 1 641.3-2.4 638.12-5.81 638.12-12.06L638.12-12.06Q638.12-15.77 639.75-18.84 641.39-21.9 644.19-23.65 646.98-25.39 650.28-25.39ZM649.79-23.71L649.79-23.71Q647.86-23.71 646.44-23.14 645.03-22.58 644.17-21.63 643.32-20.68 642.81-19.21 642.29-17.75 642.11-16.21 641.93-14.67 641.93-12.65L641.93-12.65Q641.93-9.42 642.7-7.02 643.47-4.61 644.76-3.28 646.05-1.95 647.52-1.33 648.98-0.71 650.62-0.71L650.62-0.71Q652.52-0.71 653.95-1.31 655.38-1.9 656.23-2.87 657.09-3.83 657.6-5.31 658.11-6.79 658.3-8.3 658.48-9.81 658.48-11.74L658.48-11.74Q658.48-14.45 657.97-16.58 657.45-18.7 656.61-20.02 655.77-21.34 654.61-22.19 653.45-23.05 652.28-23.38 651.11-23.71 649.79-23.71ZM702.76-2.44L702.76-5.54 702.76-16.75Q702.76-18.87 702.31-20.19 701.86-21.51 701.14-22.24 700.42-22.97 699.53-23.23 698.64-23.49 697.76-23.49L697.76-23.49Q696.05-23.49 694.23-22.8 692.41-22.12 690.39-20.65L690.39-20.65Q690.78-19.34 690.78-17.65L690.78-17.65 690.78-2.76Q690.78-2.15 691.06-1.76 691.34-1.37 691.79-1.1 692.24-0.83 692.83-0.65 693.41-0.46 694.02-0.29L694.02-0.29 693.83 0.29Q692.39 0 690.17 0L690.17 0Q688.78 0 686.92 0.39L686.92 0.39 686.77 0.15Q687.29-0.54 687.29-2.44L687.29-2.44 687.29-16.75Q687.29-18.85 686.8-20.17 686.31-21.48 685.53-22.23 684.75-22.97 683.77-23.24 682.79-23.51 681.84-23.51L681.84-23.51Q680.74-23.51 679.79-23.28 678.84-23.05 677.92-22.61 677.01-22.17 676.03-21.5 675.05-20.83 673.93-19.95L673.93-19.95 673.93-3.34Q673.93-2.56 674.05-2.09 674.18-1.61 674.57-1.29 674.96-0.98 675.66-0.73 676.37-0.49 677.52-0.2L677.52-0.2 677.33 0.39Q675.91 0.2 674.92 0.1 673.93 0 673.32 0L673.32 0Q671.93 0 670.07 0.39L670.07 0.39 669.93 0.15Q670.42-0.56 670.42-2.44L670.42-2.44 670.42-18.09Q670.42-19.73 670.26-20.83 670.1-21.92 669.7-22.58 669.29-23.24 668.58-23.51 667.88-23.78 666.78-23.78L666.78-23.78Q666.63-23.78 666.46-23.78 666.29-23.78 666.12-23.75L666.12-23.75 666.02-24.19Q670-25.39 673.42-25.39L673.42-25.39Q673.93-24.1 673.93-22.61L673.93-22.61 673.93-21.61Q675.25-22.61 676.34-23.33 677.42-24.05 678.46-24.51 679.5-24.98 680.57-25.2 681.65-25.42 682.96-25.42L682.96-25.42Q683.92-25.42 684.91-25.26 685.89-25.1 686.81-24.69 687.73-24.29 688.51-23.63 689.29-22.97 689.83-21.95L689.83-21.95Q691.02-22.83 692.12-23.49 693.22-24.15 694.29-24.58 695.37-25.02 696.47-25.23 697.56-25.44 698.79-25.44L698.79-25.44Q700.13-25.44 701.46-25.09 702.79-24.73 703.86-23.85 704.94-22.97 705.61-21.47 706.28-19.97 706.28-17.65L706.28-17.65 706.28-2.76Q706.28-2.15 706.56-1.76 706.84-1.37 707.29-1.1 707.74-0.83 708.33-0.65 708.92-0.46 709.53-0.29L709.53-0.29 709.33 0.29Q707.89 0 705.67 0L705.67 0Q704.28 0 702.42 0.39L702.42 0.39 702.28 0.15Q702.76-0.56 702.76-2.44L702.76-2.44ZM717.41-2.44L717.41-18.09Q717.41-21.56 716.59-22.74 715.77-23.93 713.11-23.75L713.11-23.75 713.02-24.19Q717.04-25.39 720.41-25.39L720.41-25.39Q720.93-24.12 720.93-22.61L720.93-22.61 720.93-4.39Q720.93-2.47 721.83-1.54 722.73-0.61 725.03-0.2L725.03-0.2 724.83 0.39Q722.02 0 720.5 0 718.97 0 717.07 0.39L717.07 0.39 716.92 0.15Q717.41-0.56 717.41-2.44L717.41-2.44ZM714.92-34.45L714.92-34.45Q717.24-35.79 720.17-36.69L720.17-36.69Q720.17-34.67 720.83-32.69L720.83-32.69 720.51-32.25Q718.19-32.1 715.68-30.96L715.68-30.96Q715.07-32.64 714.92-34.45ZM745.58-5.69L745.58-5.69Q745.58-3.93 744.87-2.66 744.17-1.39 742.98-0.57 741.8 0.24 740.22 0.62 738.65 1 736.91 1L736.91 1Q732.72 1 729.03-0.76L729.03-0.76Q729.49-2.37 729.96-3.75 730.42-5.13 730.91-6.3L730.91-6.3 731.62-6.05Q731.4-4.98 731.4-3.99 731.4-3 731.47-2.2L731.47-2.2Q732.23-1.81 732.89-1.53 733.55-1.25 734.2-1.06 734.86-0.88 735.62-0.79 736.38-0.71 737.38-0.71L737.38-0.71Q738.87-0.71 739.84-0.9 740.82-1.1 741.37-1.57 741.92-2.05 742.14-2.84 742.36-3.64 742.36-4.81L742.36-4.81Q742.36-5.71 742.05-6.51 741.75-7.3 741-8.08 740.26-8.86 739.03-9.7 737.79-10.55 735.96-11.55L735.96-11.55Q733.01-13.31 731.49-15.05 729.98-16.8 729.98-18.8L729.98-18.8Q729.98-20.39 730.64-21.62 731.3-22.85 732.43-23.69 733.57-24.54 735.08-24.96 736.6-25.39 738.28-25.39L738.28-25.39Q739.14-25.39 740.08-25.27 741.02-25.15 741.9-24.91 742.77-24.68 743.54-24.35 744.31-24.02 744.87-23.61L744.87-23.61Q744.09-20.41 742.97-17.99L742.97-17.99 742.26-18.26Q742.31-18.97 742.33-20.01 742.36-21.04 742.36-22.46L742.36-22.46Q740.77-23.71 737.96-23.71L737.96-23.71Q736.57-23.71 735.61-23.54 734.64-23.36 734.06-22.95 733.47-22.53 733.22-21.81 732.96-21.09 732.96-20L732.96-20Q732.96-19.19 733.18-18.49 733.4-17.8 733.96-17.13 734.52-16.46 735.49-15.76 736.45-15.06 737.96-14.26L737.96-14.26Q740.33-12.96 741.81-11.99 743.29-11.01 744.13-10.07 744.97-9.13 745.28-8.11 745.58-7.08 745.58-5.69ZM757.71-22.61L757.71-6.74Q757.71-3.42 758.45-2.16 759.18-0.9 760.81-0.9L760.81-0.9Q762.6-0.9 765.16-2.25L765.16-2.25 765.92-1.2Q761.89 1 759.32 1L759.32 1Q757.96 1 757.1 0.76 756.25 0.51 755.54-0.2 754.83-0.9 754.53-2.28 754.22-3.66 754.22-5.86L754.22-5.86 754.22-22.41 750.56-22.19 750.56-23.75Q752.49-24.17 754.22-24.29L754.22-24.29 754.22-27.76Q756.3-28.93 757.62-31.1L757.62-31.1 758.37-30.81Q757.96-29.83 757.84-28.6 757.71-27.37 757.71-24.44L757.71-24.44 766.11-24.44 766.11-23.58Q765.09-23.17 764.04-22.89 762.99-22.61 761.86-22.61L761.86-22.61 757.71-22.61ZM786.67-5.69L786.67-5.69Q786.67-3.93 785.96-2.66 785.25-1.39 784.07-0.57 782.88 0.24 781.31 0.62 779.73 1 778 1L778 1Q773.8 1 770.11-0.76L770.11-0.76Q770.58-2.37 771.04-3.75 771.5-5.13 771.99-6.3L771.99-6.3 772.7-6.05Q772.48-4.98 772.48-3.99 772.48-3 772.55-2.2L772.55-2.2Q773.31-1.81 773.97-1.53 774.63-1.25 775.29-1.06 775.95-0.88 776.7-0.79 777.46-0.71 778.46-0.71L778.46-0.71Q779.95-0.71 780.93-0.9 781.9-1.1 782.45-1.57 783-2.05 783.22-2.84 783.44-3.64 783.44-4.81L783.44-4.81Q783.44-5.71 783.14-6.51 782.83-7.3 782.09-8.08 781.34-8.86 780.11-9.7 778.88-10.55 777.05-11.55L777.05-11.55Q774.09-13.31 772.58-15.05 771.07-16.8 771.07-18.8L771.07-18.8Q771.07-20.39 771.72-21.62 772.38-22.85 773.52-23.69 774.65-24.54 776.17-24.96 777.68-25.39 779.37-25.39L779.37-25.39Q780.22-25.39 781.16-25.27 782.1-25.15 782.98-24.91 783.86-24.68 784.63-24.35 785.4-24.02 785.96-23.61L785.96-23.61Q785.18-20.41 784.05-17.99L784.05-17.99 783.35-18.26Q783.39-18.97 783.42-20.01 783.44-21.04 783.44-22.46L783.44-22.46Q781.86-23.71 779.05-23.71L779.05-23.71Q777.66-23.71 776.69-23.54 775.73-23.36 775.14-22.95 774.56-22.53 774.3-21.81 774.04-21.09 774.04-20L774.04-20Q774.04-19.19 774.26-18.49 774.48-17.8 775.04-17.13 775.61-16.46 776.57-15.76 777.53-15.06 779.05-14.26L779.05-14.26Q781.42-12.96 782.89-11.99 784.37-11.01 785.21-10.07 786.06-9.13 786.36-8.11 786.67-7.08 786.67-5.69Z" opacity="1" transform="matrix(1,0,0,1,0,0)" fill="#ff4136" class="slogan-text-1" data-fill-palette-color="secondary" id="text-1"></path></svg></g></svg></g></svg></g></svg></g><g></g></svg></g></svg></g></svg></g><defs></defs></svg><rect width="320" height="360" fill="none" stroke="none" visibility="hidden"></rect></g></svg></g></svg>